<svg width="100" height="100" viewBox="0 0 100 100" fill="none" xmlns="http://www.w3.org/2000/svg">
<path d="M59.8086 12.6121L58.0989 1.80831C57.9348 0.768403 57.0085 0 55.9233 0H43.0872C42.0021 0 41.0758 0.768403 40.9117 1.80831L39.202 12.6121C37.9845 12.6121 37 13.5649 37 14.7431V96.8086C37 98.5708 38.4768 100 40.2977 100H58.7023C60.5232 100 62 98.5708 62 96.8086V14.7431C62 13.5649 61.0155 12.6121 59.798 12.6121H59.8086ZM51.6411 68.9565C51.6411 69.8991 50.8524 70.6624 49.8785 70.6624H49.1321C48.1582 70.6624 47.3695 69.8991 47.3695 68.9565V48.0098C47.3695 47.0673 48.1582 46.304 49.1321 46.304H49.8785C50.8524 46.304 51.6411 47.0673 51.6411 48.0098V68.9565ZM60.6767 21.9405H39.5566V98.8679C38.7626 98.4581 38.2227 97.6487 38.2227 96.7164V16.3567H60.6767V21.9405Z" fill="#0B0B0B"/>
</svg>
