<svg width="100" height="100" viewBox="0 0 100 100" fill="none" xmlns="http://www.w3.org/2000/svg">
<path d="M72.6119 87.7551H27.3881C26.0692 87.7551 25 88.8233 25 90.141V97.6141C25 98.9318 26.0692 100 27.3881 100H72.6119C73.9308 100 75 98.9318 75 97.6141V90.141C75 88.8233 73.9308 87.7551 72.6119 87.7551Z" fill="#0B0B0B"/>
<path d="M67.6209 74.4898H31.3791C30.0637 74.4898 29 75.5561 29 76.8746V86.7347H70V76.8746C70 75.5561 68.9362 74.4898 67.6209 74.4898Z" fill="#0B0B0B"/>
<path d="M62.6349 13.2711H35.3708C34.06 13.2711 33 14.3579 33 15.7017V73.4694H34.6071V16.3795C34.6071 15.4213 35.3651 14.6442 36.2997 14.6442H57.2265C57.8021 14.6442 58.3093 14.9363 58.6114 15.3862C58.5544 15.3804 58.4974 15.3746 58.4347 15.3746H37.5079C36.5733 15.3746 35.8153 16.1516 35.8153 17.1099V73.4577H65V15.6959C65 14.3521 63.94 13.2653 62.6292 13.2653L62.6349 13.2711ZM55.2319 49.6308C55.2319 51.6875 53.602 53.3585 51.5959 53.3585H46.4098C44.4037 53.3585 42.7738 51.6875 42.7738 49.6308V37.1097C42.7738 35.0531 44.4037 33.382 46.4098 33.382H51.5959C53.602 33.382 55.2319 35.0531 55.2319 37.1097V49.6308Z" fill="#0B0B0B"/>
<path d="M57.6563 0H40.3437C39.0479 0 38 1.06627 38 2.38477V12.2449H60V2.38477C60 1.06627 58.9521 0 57.6563 0Z" fill="#0B0B0B"/>
</svg>
