<svg width="100" height="100" viewBox="0 0 100 100" fill="none" xmlns="http://www.w3.org/2000/svg">
<path d="M75.8441 18.0328H24.1558C22.4133 18.0328 21 19.4545 21 21.2075V96.8253C21 98.5783 22.4133 100 24.1558 100H75.8441C77.5867 100 79 98.5783 79 96.8253V21.2126C79 19.4596 77.5867 18.0379 75.8441 18.0379V18.0328ZM27.3825 98.6088H24.2824C23.2339 98.6088 22.3879 97.7527 22.3879 96.703V21.3349C22.3879 20.2801 23.2389 19.4291 24.2824 19.4291H27.5041C26.8811 19.7399 26.4505 20.3871 26.4505 21.1362V96.968C26.4505 97.6661 26.8253 98.2776 27.3825 98.6088Z" fill="#0B0B0B"/>
<path d="M53.0805 0C51.3795 0 50 1.43064 50 3.19459V16.3934H51.2015V3.46636C51.2015 2.14853 52.23 1.08196 53.5008 1.08196H55.2511C54.4106 1.26143 53.7777 2.03572 53.7777 2.95872V16.3934H69.3333V3.19459C69.3333 1.43064 67.9538 0 66.2529 0H53.0805Z" fill="#0B0B0B"/>
</svg>
