<svg width="100" height="100" viewBox="0 0 100 100" fill="none" xmlns="http://www.w3.org/2000/svg">
<path d="M40.3728 35.7469L39.2779 37.6545C39.0676 38.0208 39.2276 38.5096 39.635 38.7462L67.8376 55.1247C68.2451 55.3613 68.7458 55.2563 68.9561 54.89L70.051 52.9823C70.2612 52.616 70.1013 52.1273 69.6938 51.8906L41.4913 35.5122C41.0838 35.2755 40.5831 35.3806 40.3728 35.7469Z" fill="#0B0B0B"/>
<path d="M67.4206 55.1857L40.1693 39.4249C38.6562 38.5493 36.7291 39.0716 35.8549 40.5821L13.4242 79.4926C12.55 81.0083 13.0714 82.9387 14.5794 83.8143L41.8307 99.5751C43.3438 100.451 45.2709 99.9284 46.1451 98.4179L68.5758 59.5074C69.45 57.9917 68.9286 56.0613 67.4206 55.1857ZM45.1176 97.3733C44.4939 98.4537 43.1138 98.8275 42.0352 98.2028L15.6734 82.9592C14.5948 82.3345 14.2216 80.9519 14.8453 79.8715L22.7073 66.2254H63.0704L45.1176 97.3784V97.3733Z" fill="#0B0B0B"/>
<path d="M86.4633 26.5352C80.3515 19.5381 78.5683 10.087 81.6419 1.6832C81.7436 1.40185 81.6318 1.08404 81.3778 0.932948L79.94 0.0837094C79.686 -0.0673822 79.3608 -0.0100716 79.1728 0.224381C73.6148 7.15375 64.7341 10.285 55.7772 8.3677L78.3752 21.7471C78.5378 21.8409 78.5937 22.0545 78.5022 22.2212L78.4412 22.3306C78.3447 22.4974 78.1415 22.5547 77.9789 22.4557L54.2226 8.96164L41.1404 32.2037C40.8508 32.7195 41.0236 33.3812 41.5265 33.6833L72.2177 51.856C72.7206 52.153 73.3709 51.9759 73.6605 51.4601L86.8596 28.0148C87.1492 27.499 86.9764 26.8373 86.4735 26.5352H86.4633Z" fill="#0B0B0B"/>
</svg>
