<svg width="20" height="40" viewBox="0 0 20 40" fill="none" xmlns="http://www.w3.org/2000/svg">
<path d="M19.0448 35.102H0.955221C0.427666 35.102 0 35.5293 0 36.0564V39.0456C0 39.5727 0.427666 40 0.955221 40H19.0448C19.5723 40 20 39.5727 20 39.0456V36.0564C20 35.5293 19.5723 35.102 19.0448 35.102Z" fill="#0B0B0B"/>
<path d="M17.0483 29.7959H2.55165C2.0255 29.7959 1.6 30.2224 1.6 30.7498V34.6939H18V30.7498C18 30.2224 17.5745 29.7959 17.0483 29.7959Z" fill="#0B0B0B"/>
<path d="M15.054 5.30846H4.14831C3.624 5.30846 3.2 5.74316 3.2 6.2807V29.3878H3.84285V6.5518C3.84285 6.16852 4.14604 5.85768 4.51989 5.85768H12.8906C13.1209 5.85768 13.3237 5.97454 13.4446 6.1545C13.4218 6.15216 13.399 6.14982 13.3739 6.14982H5.00317C4.62931 6.14982 4.32612 6.46066 4.32612 6.84394V29.3831H16V6.27836C16 5.74083 15.576 5.30612 15.0517 5.30612L15.054 5.30846ZM12.0928 19.8523C12.0928 20.675 11.4408 21.3434 10.6384 21.3434H8.56392C7.7615 21.3434 7.10953 20.675 7.10953 19.8523V14.8439C7.10953 14.0212 7.7615 13.3528 8.56392 13.3528H10.6384C11.4408 13.3528 12.0928 14.0212 12.0928 14.8439V19.8523Z" fill="#0B0B0B"/>
<path d="M13.0625 0H6.13747C5.61916 0 5.2 0.426508 5.2 0.95391V4.89796H14V0.95391C14 0.426508 13.5808 0 13.0625 0Z" fill="#0B0B0B"/>
</svg>
