<svg width="24" height="40" viewBox="0 0 24 40" fill="none" xmlns="http://www.w3.org/2000/svg">
<path d="M22.3377 7.21312H1.66234C0.96533 7.21312 0.400024 7.78182 0.400024 8.48301V38.7301C0.400024 39.4313 0.96533 40 1.66234 40H22.3377C23.0347 40 23.6 39.4313 23.6 38.7301V8.48505C23.6 7.78385 23.0347 7.21515 22.3377 7.21515V7.21312ZM2.95304 39.4435H1.713C1.29357 39.4435 0.955201 39.1011 0.955201 38.6812V8.53397C0.955201 8.11203 1.2956 7.77162 1.713 7.77162H3.00167C2.75245 7.89596 2.58022 8.15483 2.58022 8.45447V38.7872C2.58022 39.0664 2.73016 39.311 2.95304 39.4435Z" fill="#0B0B0B"/>
<path d="M13.2322 0C12.5518 0 12 0.572258 12 1.27784V6.55738H12.4806V1.38655C12.4806 0.859412 12.892 0.432783 13.4003 0.432783H14.1005C13.7643 0.504571 13.5111 0.814288 13.5111 1.18349V6.55738H19.7334V1.27784C19.7334 0.572258 19.1815 0 18.5012 0H13.2322Z" fill="#0B0B0B"/>
</svg>
