<svg width="20" height="40" viewBox="0 0 20 40" fill="none" xmlns="http://www.w3.org/2000/svg">
<path d="M8.45895 37.1429H11.3474V39.4348C11.3474 39.7465 11.0911 40 10.776 40H9.03034C8.71524 40 8.45895 39.7465 8.45895 39.4348V37.1429Z" fill="#0B0B0B"/>
<path d="M12.1203 0H7.71333C7.3795 0 7.17374 0.299767 7.3564 0.524598C8.07655 1.41582 8.53006 2.71214 8.53006 4.15632C8.53006 5.93876 7.8393 7.49434 6.80842 8.34303V8.36735H12.9979C11.9691 7.52069 11.2784 5.96307 11.2784 4.18468C11.2784 2.72632 11.7403 1.41987 12.473 0.528653C12.6578 0.303822 12.452 0.00201512 12.1182 0.00201512L12.1203 0Z" fill="#0B0B0B"/>
<path d="M19.6 12.449H18.3621V31.4286H19.6V12.449Z" fill="#0B0B0B"/>
<path d="M19.5979 11.8367V10.5841C19.5979 9.81098 18.9485 9.18367 18.1481 9.18367H1.44979C0.649406 9.18367 0 9.81098 0 10.5841V11.8367H19.6H19.5979Z" fill="#0B0B0B"/>
<path d="M1.23789 12.449H0V31.4286H1.23789V12.449Z" fill="#0B0B0B"/>
<path d="M0.00205756 32.0408V34.8863C0.00205756 35.6814 0.651464 36.3265 1.45184 36.3265H18.1502C18.9506 36.3265 19.6 35.6814 19.6 34.8863V32.0408H0H0.00205756Z" fill="#0B0B0B"/>
<path d="M17.5368 12.449H3.09474V31.4286H17.5368V12.449Z" fill="#0B0B0B"/>
</svg>
