<svg width="32" height="40" viewBox="0 0 32 40" fill="none" xmlns="http://www.w3.org/2000/svg">
<path d="M28.3194 0H2.05923C1.36392 0 0.799988 0.570869 0.799988 1.27474V38.7253C0.799988 39.4291 1.36392 40 2.05923 40H28.3194C29.0147 40 29.5786 39.4291 29.5786 38.7253V1.27474C29.5786 0.570869 29.0147 0 28.3194 0ZM21.15 38.4531C21.15 38.891 20.7983 39.247 20.3658 39.247H2.39476C1.96221 39.247 1.61051 38.891 1.61051 38.4531V1.54688C1.61051 1.10901 1.96221 0.752978 2.39476 0.752978H20.3658C20.7983 0.752978 21.15 1.10901 21.15 1.54688V38.4531ZM28.7681 38.4531C28.7681 38.891 28.4164 39.247 27.9839 39.247H27.5614C27.7514 39.1017 27.8767 38.8726 27.8767 38.6127V1.38933C27.8767 1.12947 27.7535 0.898256 27.5614 0.755026H27.9839C28.4164 0.755026 28.7681 1.11106 28.7681 1.54893V38.4552V38.4531Z" fill="#0B0B0B"/>
<path d="M17.5683 1.42858H14.6343C13.9785 1.42858 13.4364 1.96402 13.3653 2.65307H18.8373C18.7663 1.96402 18.2241 1.42858 17.5683 1.42858Z" fill="#0B0B0B"/>
<path d="M11.744 37.7478C11.744 38.0895 12.0179 38.3674 12.3547 38.3674H19.8479C20.1847 38.3674 20.4587 38.0895 20.4587 37.7478V36.9388H11.744V37.7478Z" fill="#0B0B0B"/>
<path d="M19.8479 3.06122H12.3547C12.0179 3.06122 11.744 3.33609 11.744 3.67408V36.3265H20.4587V3.67408C20.4587 3.33609 20.1847 3.06122 19.8479 3.06122Z" fill="#0B0B0B"/>
<path d="M5.31168 38.3674H8.24564C8.90147 38.3674 9.44359 37.8319 9.51466 37.1429H4.04266C4.11372 37.8319 4.65585 38.3674 5.31168 38.3674Z" fill="#0B0B0B"/>
<path d="M11.136 2.04816C11.136 1.70646 10.8621 1.42857 10.5252 1.42857H3.03206C2.69524 1.42857 2.42132 1.70646 2.42132 2.04816V2.85714H11.136V2.04816Z" fill="#0B0B0B"/>
<path d="M3.03206 36.5306H10.5253C10.8621 36.5306 11.136 36.2557 11.136 35.9178V3.26531H2.42132V35.9178C2.42132 36.2557 2.69524 36.5306 3.03206 36.5306Z" fill="#0B0B0B"/>
<path d="M30.4328 11.4286H30.1867V3.26529H30.4328C30.8565 3.26529 31.2 3.63477 31.2 4.09045V10.6034C31.2 11.0591 30.8565 11.4286 30.4328 11.4286Z" fill="#0B0B0B"/>
<path d="M30.3954 36.5306H30.1867V34.0816H30.3954C30.7278 34.0816 30.9973 34.3491 30.9973 34.6788V35.9314C30.9973 36.2612 30.7278 36.5286 30.3954 36.5286V36.5306Z" fill="#0B0B0B"/>
<path d="M30.3954 32.6531H30.1867V30.2041H30.3954C30.7278 30.2041 30.9973 30.4715 30.9973 30.8013V32.0539C30.9973 32.3836 30.7278 32.6511 30.3954 32.6511V32.6531Z" fill="#0B0B0B"/>
</svg>
