<svg width="18" height="40" viewBox="0 0 18 40" fill="none" xmlns="http://www.w3.org/2000/svg">
<path d="M16.9817 11.7766H1.01822C0.786981 11.7766 0.599976 11.9072 0.599976 12.0688V12.9058C0.599976 13.0674 0.786981 13.198 1.01822 13.198H16.9817C17.213 13.198 17.4 13.0674 17.4 12.9058V12.0688C17.4 11.9072 17.213 11.7766 16.9817 11.7766Z" fill="#0B0B0B"/>
<path d="M16.9269 3.82679C13.13 3.25338 10.2471 1.83206 9.62104 0.0996328C9.60091 0.0406653 9.49018 0 9.36133 0H8.63861C8.50976 0 8.40104 0.0426986 8.3789 0.0996328C7.7528 1.83206 4.8659 3.25338 1.07307 3.82679H11.1088C11.1833 3.82679 11.2437 3.88779 11.2437 3.96302V4.01385C11.2437 4.08909 11.1833 4.1501 11.1088 4.1501L0.599976 4.3392V11.092C0.599976 11.2465 0.811355 11.3706 1.07307 11.3706H16.9269C17.1886 11.3706 17.4 11.2445 17.4 11.092V4.10739C17.4 3.95286 17.1886 3.82882 16.9269 3.82882V3.82679Z" fill="#0B0B0B"/>
<path d="M16.6489 13.8071H1.35108C0.936266 13.8071 0.599976 14.1444 0.599976 14.5605V39.2466C0.599976 39.6627 0.936266 40 1.35108 40H16.6489C17.0637 40 17.4 39.6627 17.4 39.2466V14.5605C17.4 14.1444 17.0637 13.8071 16.6489 13.8071ZM1.15575 38.9255V19.1636H12.9518V39.4425H1.67125C1.38732 39.4425 1.15575 39.2103 1.15575 38.9255ZM16.8442 38.9255C16.8442 39.2103 16.6126 39.4425 16.3287 39.4425H16.1112V19.1636H16.8442V38.9255Z" fill="#0B0B0B"/>
</svg>
