<svg width="11" height="40" viewBox="0 0 11 40" fill="none" xmlns="http://www.w3.org/2000/svg">
<path d="M9.92348 5.04482L9.2396 0.723324C9.17397 0.307361 8.80343 0 8.36939 0H3.23494C2.8009 0 2.43037 0.307361 2.36474 0.723324L1.68085 5.04482C1.19387 5.04482 0.800049 5.42595 0.800049 5.89724V38.7234C0.800049 39.4283 1.39078 40 2.11913 40H9.48097C10.2093 40 10.8 39.4283 10.8 38.7234V5.89724C10.8 5.42595 10.4062 5.04482 9.91925 5.04482H9.92348ZM6.6565 27.5826C6.6565 27.9596 6.34101 28.2649 5.95143 28.2649H5.6529C5.26332 28.2649 4.94783 27.9596 4.94783 27.5826V19.2039C4.94783 18.8269 5.26332 18.5216 5.6529 18.5216H5.95143C6.34101 18.5216 6.6565 18.8269 6.6565 19.2039V27.5826ZM10.2707 8.77619H1.8227V39.5471C1.50511 39.3832 1.28914 39.0595 1.28914 38.6865V6.5427H10.2707V8.77619Z" fill="#0B0B0B"/>
</svg>
