<svg width="30" height="40" viewBox="0 0 30 40" fill="none" xmlns="http://www.w3.org/2000/svg">
<path d="M11.1491 14.2988L10.7112 15.0618C10.6271 15.2083 10.691 15.4038 10.854 15.4985L22.135 22.0499C22.298 22.1445 22.4983 22.1025 22.5824 21.956L23.0204 21.1929C23.1045 21.0464 23.0405 20.8509 22.8775 20.7562L11.5965 14.2049C11.4335 14.1102 11.2332 14.1522 11.1491 14.2988Z" fill="#0B0B0B"/>
<path d="M21.9682 22.0743L11.0677 15.77C10.4625 15.4197 9.69163 15.6286 9.34198 16.2328L0.369677 31.797C0.0200268 32.4033 0.228592 33.1755 0.831789 33.5257L11.7323 39.83C12.3375 40.1803 13.1084 39.9714 13.458 39.3672L22.4303 23.803C22.78 23.1967 22.5714 22.4245 21.9682 22.0743ZM13.047 38.9493C12.7976 39.3815 12.2455 39.531 11.8141 39.2811L1.26937 33.1837C0.837927 32.9338 0.688662 32.3808 0.93812 31.9486L4.08293 26.4902H20.2282L13.047 38.9514V38.9493Z" fill="#0B0B0B"/>
<path d="M29.5853 10.6141C27.1406 7.81522 26.4273 4.03481 27.6568 0.673278C27.6974 0.560741 27.6527 0.433616 27.5511 0.373179L26.976 0.0334838C26.8744 -0.0269529 26.7443 -0.00402864 26.6691 0.0897523C24.4459 2.8615 20.8937 4.114 17.3109 3.34708L26.3501 8.69885C26.4151 8.73636 26.4375 8.8218 26.4009 8.88849L26.3765 8.93226C26.3379 8.99895 26.2566 9.02187 26.1916 8.98227L16.6891 3.58466L11.4562 12.8815C11.3403 13.0878 11.4094 13.3525 11.6106 13.4733L23.8871 20.7424C24.0883 20.8612 24.3484 20.7903 24.4642 20.584L29.7439 11.2059C29.8597 10.9996 29.7906 10.7349 29.5894 10.6141H29.5853Z" fill="#0B0B0B"/>
</svg>
