<svg width="180" height="126" viewBox="0 0 180 126" fill="none" xmlns="http://www.w3.org/2000/svg">
<path d="M88.5263 125.473C89.3384 126.176 90.6581 126.176 91.4702 125.473L107.502 113.157L175.095 68.5465C178.234 65.8339 180 62.1569 180 58.3245L180 1.29921C180 -0.300995 180 0.0279272 176.447 0.0279144C118.574 0.0279418 61.4261 0.0279411 3.55293 0.0279123C0.666656 0.0279123 3.58932e-09 -0.300997 -1.5493e-08 1.29921L6.03396e-05 58.3245C6.02939e-05 62.1606 1.76565 65.8376 4.90529 68.5502L72.4982 113.16L88.5299 125.477L88.5263 125.473Z" fill="url(#paint0_linear_1218_4900)"/>
<defs>
<linearGradient id="paint0_linear_1218_4900" x1="136" y1="-55.5" x2="84.5" y2="230" gradientUnits="userSpaceOnUse">
<stop stop-color="#656867"/>
<stop offset="1" stop-color="#2D3532"/>
</linearGradient>
</defs>
</svg>
