<svg width="130" height="83" viewBox="0 0 130 83" fill="none" xmlns="http://www.w3.org/2000/svg">
<path d="M108.316 83C101.573 83 96.0904 77.4606 96.0904 70.6477C96.0904 63.8347 101.573 58.2953 108.316 58.2953C115.058 58.2953 120.541 63.8347 120.541 70.6477C120.541 77.4606 115.058 83 108.316 83ZM108.316 61.1727C103.146 61.1727 98.943 65.4242 98.943 70.6429C98.943 75.8615 103.146 80.113 108.316 80.113C113.485 80.113 117.688 75.8615 117.688 70.6429C117.688 65.4242 113.485 61.1727 108.316 61.1727Z" fill="white"/>
<path d="M19.2948 83C12.5521 83 7.06971 77.4606 7.06971 70.6477C7.06971 63.8347 12.5521 58.2953 19.2948 58.2953C26.0376 58.2953 31.52 63.8347 31.52 70.6477C31.52 77.4606 26.0376 83 19.2948 83ZM19.2948 61.1727C14.1252 61.1727 9.92225 65.4242 9.92225 70.6429C9.92225 75.8615 14.1252 80.113 19.2948 80.113C24.4645 80.113 28.6674 75.8615 28.6674 70.6429C28.6674 65.4242 24.4645 61.1727 19.2948 61.1727Z" fill="white"/>
<path d="M127.587 75.8998H121.735V70.6429C121.735 63.1644 115.717 57.084 108.316 57.084C103.274 57.084 98.7013 59.9088 96.3889 64.4524L96.2894 64.6486H31.3209L31.2215 64.4524C28.9044 59.9088 24.3365 57.084 19.2948 57.084C14.2532 57.084 9.68059 59.9088 7.36824 64.4524L7.26873 64.6486H0V3.24609C0 1.45548 1.44048 0 3.21265 0H99.4831C101.255 0 102.696 1.45548 102.696 3.24609V16.3597H110.391C110.997 16.3597 112.845 16.3549 114.461 16.7284C116.887 17.2886 118.432 18.969 120.133 21.4969C123.403 26.3517 126.051 32.9205 128.013 41.0165C131.363 54.8482 129.468 73.8651 129.449 74.0566C129.449 75.0572 128.615 75.895 127.591 75.895L127.587 75.8998ZM122.45 75.1816H127.587C128.217 75.1816 128.733 74.6646 128.733 74.023C128.752 73.798 130.633 54.9008 127.317 41.1936C125.379 33.1789 122.763 26.6916 119.541 21.9086C117.935 19.5243 116.499 17.9445 114.3 17.437C112.765 17.0779 110.979 17.0827 110.391 17.0875H101.98V3.25088C101.98 1.85765 100.862 0.727743 99.4831 0.727743H3.21265C1.83377 0.727743 0.715506 1.85765 0.715506 3.25088V63.9353H6.83754C9.30625 59.2672 14.0589 56.3754 19.2996 56.3754C24.5403 56.3754 29.2929 59.2672 31.7616 63.9353H95.863C98.3317 59.2672 103.084 56.3754 108.325 56.3754C116.12 56.3754 122.46 62.7814 122.46 70.6572V75.1912L122.45 75.1816Z" fill="white"/>
<path d="M5.87564 75.8998H3.2079C1.44047 75.8998 0 74.4443 0 72.6585V65.3907H6.92757L6.7475 65.8791C6.16942 67.4303 5.87564 69.0342 5.87564 70.6477V75.9046V75.8998ZM0.710763 66.1089V72.6585C0.710763 74.0469 1.82902 75.1816 3.2079 75.1816H5.16013V70.6477C5.16013 69.1156 5.41127 67.5931 5.90407 66.1137H0.710763V66.1089Z" fill="white"/>
<path d="M94.8964 75.8998H32.7093V70.6429C32.7093 69.0294 32.4156 67.4255 31.8375 65.8743L31.6574 65.3859H95.9483L95.7682 65.8743C95.1901 67.4255 94.8964 69.0294 94.8964 70.6429V75.8998ZM33.4248 75.1816H94.1856V70.6477C94.1856 69.1156 94.4367 67.5931 94.9295 66.1137H32.6809C33.1737 67.5931 33.4248 69.1156 33.4248 70.6477V75.1816Z" fill="white"/>
<path d="M117.878 40.7148H101.928V24.5084H110.424C113.514 24.5084 116.314 26.4714 117.39 29.3967L120.275 37.2245C120.569 38.0193 120.455 38.9098 119.977 39.604C119.498 40.2982 118.712 40.7148 117.878 40.7148ZM117.878 39.9966C118.489 39.9966 119.043 39.7046 119.394 39.1971C119.745 38.6896 119.82 38.0624 119.607 37.4831L116.721 29.6552C115.745 27.0124 113.215 25.2314 110.424 25.2314H102.639V39.9966H117.878Z" fill="white"/>
<path d="M15.523 3.91644H15.016V51.2H15.523V3.91644Z" fill="white"/>
<path d="M30.3306 3.91644H29.8236V51.2H30.3306V3.91644Z" fill="white"/>
<path d="M45.1429 3.91644H44.6359V51.2H45.1429V3.91644Z" fill="white"/>
<path d="M91.6079 39.9393L87.6371 49.5769L84.1449 39.9393H83.1593L87.2722 51.1185H88.8785L93.5222 39.9393H91.6079Z" fill="white"/>
<path fill-rule="evenodd" clip-rule="evenodd" d="M93.527 46.7809L91.7216 51.1233H93.527V46.7809Z" fill="white"/>
<path fill-rule="evenodd" clip-rule="evenodd" d="M90.9729 39.9393L87.675 48.0113L86.2914 44.1859L87.9403 39.9393H90.9729Z" fill="white"/>
<path fill-rule="evenodd" clip-rule="evenodd" d="M83.1687 42.2182L86.3766 51.1233H83.1687V42.2182Z" fill="white"/>
<path d="M59.9505 3.91644H59.4434V51.2H59.9505V3.91644Z" fill="white"/>
<path d="M74.7627 3.91644H74.2558V51.2H74.7627V3.91644Z" fill="white"/>
</svg>
