<svg width="30" height="30" viewBox="0 0 30 30" fill="none" xmlns="http://www.w3.org/2000/svg">
<path d="M0.700684 17.4696L4.57571 29.3491C4.70234 29.7364 5.06613 30 5.47597 30H24.5333C24.9432 30 25.307 29.7364 25.4336 29.3491L29.3086 17.4696H0.700684ZM14.6443 19.2757H17.2714L14.4164 25.7025L13.2191 22.6541L14.6443 19.2757ZM10.5252 28.1916V20.7678L13.4286 28.1916H10.5252ZM19.4818 28.1916H17.9299L19.4818 24.7582V28.1916ZM15.4525 28.1916H14.0894L10.5252 19.2757H11.3196L14.3864 27.0639L17.8746 19.2757H19.4841L15.4548 28.1916H15.4525Z" fill="#00A689"/>
<path d="M2.33726 15.3885L2.3718 15.416C2.7448 15.6979 3.27666 15.6222 3.55986 15.2509L14.2755 1.13217C14.3652 1.01298 14.3422 0.845665 14.2225 0.756277L13.3038 0.0663813C13.1634 -0.0390509 12.9631 -0.0115424 12.8572 0.12827L2.17149 14.2081C1.88829 14.5794 1.96427 15.1088 2.33726 15.3907V15.3885Z" fill="#00A689"/>
<path d="M27.5383 15.3861L27.5037 15.4136C27.1307 15.6956 26.5989 15.6199 26.3157 15.2486L15.6001 1.12985C15.5103 1.01067 15.5333 0.843346 15.653 0.753958L16.5717 0.064062C16.7122 -0.0413702 16.9125 -0.0138617 17.0184 0.125951L27.704 14.2057C27.9872 14.5771 27.9113 15.1065 27.5383 15.3884V15.3861Z" fill="#00A689"/>
<path d="M29.0599 14.2424H28.2632C28.4543 14.7811 28.2909 15.4022 27.8097 15.7643C27.2133 16.2135 26.366 16.0944 25.9147 15.5007L24.9592 14.2424H4.91642L3.9586 15.503C3.50732 16.0967 2.66002 16.2135 2.06369 15.7666C1.58017 15.4045 1.419 14.7811 1.61011 14.2424H0.946999C0.304616 14.2424 -0.15127 14.8659 0.046741 15.4732L0.382897 16.5069H29.6171L29.9532 15.4732C30.1513 14.8659 29.6954 14.2424 29.0553 14.2424H29.0599Z" fill="white"/>
</svg>
