<svg width="40" height="40" viewBox="0 0 40 40" fill="none" xmlns="http://www.w3.org/2000/svg">
<path d="M0.934082 23.2928L6.10078 39.1321C6.26963 39.6485 6.75468 40 7.30113 40H32.7109C33.2574 40 33.7424 39.6485 33.9113 39.1321L39.078 23.2928H0.934082ZM19.5256 25.7009H23.0284L19.2217 34.27L17.6253 30.2055L19.5256 25.7009ZM14.0335 37.5888V27.6904L17.9047 37.5888H14.0335ZM25.9755 37.5888H23.9064L25.9755 33.0109V37.5888ZM20.6031 37.5888H18.7857L14.0335 25.7009H15.0926L19.1818 36.0852L23.8327 25.7009H25.9786L20.6062 37.5888H20.6031Z" fill="#0B0B0B"/>
<path d="M3.11692 20.5179L3.16297 20.5546C3.6603 20.9305 4.36945 20.8296 4.74706 20.3345L19.0345 1.50952C19.1542 1.35061 19.1235 1.12751 18.9639 1.00833L17.739 0.0884678C17.5517 -0.0521085 17.2847 -0.0154305 17.1434 0.170986L2.89589 18.944C2.51829 19.4391 2.61959 20.145 3.11692 20.5209V20.5179Z" fill="#00A689"/>
<path d="M36.7173 20.5148L36.6712 20.5515C36.1739 20.9274 35.4648 20.8265 35.0872 20.3315L20.7997 1.50647C20.68 1.34755 20.7107 1.12446 20.8703 1.00528L22.0952 0.085416C22.2825 -0.0551603 22.5496 -0.0184823 22.6908 0.167934L36.9383 18.941C37.3159 19.4361 37.2146 20.142 36.7173 20.5179V20.5148Z" fill="#00A689"/>
<path d="M38.7465 18.9899H37.6843C37.9391 19.7081 37.7212 20.5362 37.0796 21.0191C36.2844 21.6181 35.1547 21.4592 34.553 20.6677L33.279 18.9899H6.55522L5.27813 20.6707C4.67643 21.4622 3.5467 21.6181 2.75158 21.0221C2.1069 20.5393 1.892 19.7081 2.14681 18.9899H1.26267C0.406155 18.9899 -0.201693 19.8212 0.0623213 20.631L0.510529 22.0093H39.4894L39.9377 20.631C40.2017 19.8212 39.5938 18.9899 38.7404 18.9899H38.7465Z" fill="black"/>
</svg>
