<svg width="40" height="40" viewBox="0 0 40 40" fill="none" xmlns="http://www.w3.org/2000/svg">
<path d="M0.932351 23.2958L6.09983 39.1342C6.26997 39.6518 6.75206 40 7.29717 40H32.7029C33.248 40 33.7332 39.6486 33.9002 39.1342L39.0677 23.2958H0.929199H0.932351ZM19.5227 25.7049H23.0233L19.217 34.2719L17.6195 30.2096L19.5195 25.7049H19.5227ZM14.0306 37.5939V27.6969L17.9031 37.5939H14.0306ZM25.9725 37.5939H23.9056L25.9725 33.0171V37.5939ZM20.6003 37.5939H18.7853L14.0338 25.7049H15.0925L19.1824 36.0882L23.8299 25.7049H25.9757L20.6034 37.5939H20.6003Z" fill="white"/>
<path d="M3.11591 20.5228L3.16317 20.5573C3.66102 20.9306 4.36997 20.8333 4.74808 20.3377L19.0343 1.51295C19.154 1.3561 19.1225 1.13025 18.9649 1.01105L17.7392 0.0888068C17.5502 -0.0523554 17.2855 -0.0147474 17.1437 0.170332L2.8985 18.9449C2.52354 19.4406 2.62122 20.1463 3.11906 20.5228H3.11591Z" fill="#00A689"/>
<path d="M36.7108 20.5196L36.6635 20.5541C36.1657 20.9274 35.4567 20.8302 35.0786 20.3345L20.7925 1.50976C20.6727 1.35292 20.7042 1.12706 20.8618 1.00786L22.0875 0.0856189C22.2765 -0.0555432 22.5412 -0.0178969 22.683 0.167182L36.9282 18.9417C37.3032 19.4374 37.2055 20.1432 36.7077 20.5196H36.7108Z" fill="#00A689"/>
<path d="M38.7401 18.9951H37.6782C37.9334 19.7135 37.716 20.5417 37.0732 21.0247C36.2792 21.6239 35.148 21.4671 34.5462 20.6734L33.2733 18.9951H6.55364L5.27753 20.6765C4.67571 21.467 3.54768 21.6239 2.75051 21.0279C2.10772 20.5448 1.89031 19.7135 2.14553 18.9951H1.26013C0.403088 18.9951 -0.201886 19.8264 0.0627895 20.6389L0.513368 22.016H39.4868L39.9374 20.6389C40.2021 19.8295 39.594 18.9951 38.7401 18.9951Z" fill="white"/>
</svg>
