<svg width="28" height="26" viewBox="0 0 28 26" fill="none" xmlns="http://www.w3.org/2000/svg">
<path d="M20.9686 1C23.7307 1 25.9875 2.71137 26.699 4.97127L26.8966 5.87837C27.1411 7.00057 26.9613 8.67219 26.2593 10.7056C25.5662 12.7133 24.3982 14.9733 22.7972 17.2241L22.7971 17.2242C19.9318 21.2533 16.546 24.0376 14.0004 24.9464C11.4549 24.0376 8.06905 21.2533 5.2038 17.2242L5.20374 17.2241C3.6027 14.9733 2.43396 12.7125 1.74047 10.7044C1.03801 8.67035 0.858634 6.99943 1.10404 5.87955L1.11246 5.84113L1.11784 5.80217C1.48543 3.13803 3.87557 1 7.03519 1C10.194 1 12.6936 3.23968 12.9742 5.97377L13.0663 6.87171H13.9689H14.0348H14.9367L15.0295 5.97463C15.3119 3.24553 17.8781 1 20.9686 1Z" stroke="#00A689" stroke-width="2"/>
</svg>
