<svg width="22" height="24" viewBox="0 0 22 24" fill="none" xmlns="http://www.w3.org/2000/svg">
<path d="M8.86042 23.3065H13.1405C13.3775 23.3065 13.5696 23.126 13.5696 22.9022V7.59996C13.5696 7.37622 13.3775 7.19574 13.1405 7.19574H8.86042C8.6234 7.19574 8.43129 7.37622 8.43129 7.59996V22.9022C8.43129 23.126 8.6234 23.3065 8.86042 23.3065Z" fill="#0B0B0B"/>
<path d="M7.74517 22.6328H1.21215C1.00383 22.6328 0.83417 22.4646 0.83417 22.2582V8.75823C0.83417 8.55179 1.00383 8.38367 1.21215 8.38367H7.74517V7.70997H1.00008C0.533529 7.70997 0.154297 8.08453 0.154297 8.54809V22.4671C0.154297 22.9294 0.532282 23.3052 1.00008 23.3052H7.74517V22.6315V22.6328Z" fill="#0B0B0B"/>
<path d="M21.0008 7.71121H14.2557V8.38491H20.7887C20.9971 8.38491 21.1667 8.55303 21.1667 8.75947V22.2594C21.1667 22.4659 20.9971 22.634 20.7887 22.634H14.2557V23.3077H21.0008C21.4674 23.3077 21.8466 22.9332 21.8466 22.4696V8.55056C21.8466 8.08824 21.4686 7.71245 21.0008 7.71245V7.71121Z" fill="#0B0B0B"/>
<path d="M7.82748 7.03874C7.9697 6.73341 8.28032 6.51956 8.64208 6.51956H10.537L5.04188 0.68371C4.77617 0.401868 4.32957 0.385795 4.04515 0.649094L1.26702 3.21781C0.9826 3.48111 0.966383 3.92365 1.23209 4.2055L3.89919 7.0375H7.82748V7.03874Z" fill="#0B0B0B"/>
<path d="M14.1734 7.03874C14.0312 6.73341 13.7206 6.51956 13.3588 6.51956H11.4639L16.959 0.68371C17.2247 0.401868 17.6713 0.385795 17.9557 0.649094L20.7338 3.21781C21.0183 3.48111 21.0345 3.92365 20.7688 4.2055L18.1017 7.0375H14.1734V7.03874Z" fill="#0B0B0B"/>
</svg>
