<svg width="94" height="99" viewBox="0 0 94 99" fill="none" xmlns="http://www.w3.org/2000/svg">
<path d="M37.7266 98.9947H56.2736C57.3006 98.9947 58.1331 98.2126 58.1331 97.2431V30.9332C58.1331 29.9636 57.3006 29.1816 56.2736 29.1816H37.7266C36.6995 29.1816 35.867 29.9636 35.867 30.9332V97.2431C35.867 98.2126 36.6995 98.9947 37.7266 98.9947Z" fill="#00A689"/>
<path d="M32.8938 96.0753H4.58405C3.68129 96.0753 2.94612 95.3468 2.94612 94.4522V35.9523C2.94612 35.0578 3.68129 34.3293 4.58405 34.3293H32.8938V31.4099H3.66508C1.64334 31.4099 0 33.033 0 35.0417V95.3576C0 97.361 1.63794 98.9894 3.66508 98.9894H32.8938V96.0699V96.0753Z" fill="#00A689"/>
<path d="M90.3349 31.4153H61.1062V34.3346H89.4159C90.3187 34.3346 91.0539 35.0631 91.0539 35.9577V94.4576C91.0539 95.3521 90.3187 96.0807 89.4159 96.0807H61.1062V99H90.3349C92.3567 99 94 97.3771 94 95.3683V35.0525C94 33.0491 92.3621 31.4206 90.3349 31.4206V31.4153Z" fill="#00A689"/>
<path d="M33.2505 28.5012C33.8667 27.1781 35.2128 26.2515 36.7804 26.2515H44.9917L21.1795 0.96277C20.0281 -0.258545 18.0928 -0.328197 16.8603 0.812768L4.82182 11.9439C3.58931 13.0849 3.51904 15.0025 4.67046 16.2238L16.2279 28.4959H33.2505V28.5012Z" fill="#00A689"/>
<path d="M60.7494 28.5012C60.1332 27.1781 58.7871 26.2515 57.2195 26.2515H49.0082L72.8204 0.96277C73.9718 -0.258545 75.907 -0.328197 77.1395 0.812768L89.1781 11.9439C90.4106 13.0849 90.4808 15.0025 89.3294 16.2238L77.772 28.4959H60.7494V28.5012Z" fill="#00A689"/>
</svg>
