<svg width="40" height="40" viewBox="0 0 40 40" fill="none" xmlns="http://www.w3.org/2000/svg">
<path d="M20.0001 24.5614C25.426 24.5614 29.8247 20.1627 29.8247 14.7368C29.8247 9.31084 25.426 4.91223 20.0001 4.91223C14.5741 4.91223 10.1755 9.31084 10.1755 14.7368C10.1755 20.1627 14.5741 24.5614 20.0001 24.5614Z" fill="white"/>
<path d="M29.9905 24.2106C27.5052 26.8824 23.9532 28.5584 20.0034 28.5584C16.0537 28.5584 12.5052 26.8824 10.0164 24.2106C6.09828 25.9637 2.85256 28.7162 0.70166 32.0858V37.3909C0.70166 38.4463 1.56061 39.2983 2.6167 39.2983H37.3831C38.4427 39.2983 39.2982 38.4428 39.2982 37.3909V32.0858C37.1473 28.7162 33.9015 25.9637 29.9835 24.2106H29.9905Z" fill="#00A689"/>
<path d="M37.3812 40H2.6188C1.17564 40 0 38.8244 0 37.3812V2.61882C0 1.17566 1.17564 0 2.6188 0H37.3812C38.8244 0 40 1.17566 40 2.61882V37.3812C40 38.8244 38.8244 40 37.3812 40ZM2.6188 1.40443C1.95002 1.40443 1.40796 1.94652 1.40796 2.61529V37.3777C1.40796 38.0465 1.95002 38.5885 2.6188 38.5885H37.3812C38.05 38.5885 38.592 38.0465 38.592 37.3777V2.61529C38.592 1.94652 38.05 1.40443 37.3812 1.40443H2.6188Z" fill="white"/>
</svg>
