<svg width="20" height="20" viewBox="0 0 20 20" fill="none" xmlns="http://www.w3.org/2000/svg">
<path d="M9.99992 12.2807C12.7129 12.2807 14.9122 10.0814 14.9122 7.36846C14.9122 4.65548 12.7129 2.45618 9.99992 2.45618C7.28695 2.45618 5.08765 4.65548 5.08765 7.36846C5.08765 10.0814 7.28695 12.2807 9.99992 12.2807Z" fill="#0B0B0B"/>
<path d="M14.9952 12.1052C13.7526 13.4411 11.9766 14.2791 10.0017 14.2791C8.02683 14.2791 6.2526 13.4411 5.00818 12.1052C3.04914 12.9818 1.42628 14.358 0.35083 16.0428V18.6954C0.35083 19.2231 0.780306 19.6491 1.30835 19.6491H18.6916C19.2214 19.6491 19.6491 19.2213 19.6491 18.6954V16.0428C18.5736 14.358 16.9508 12.9818 14.9917 12.1052H14.9952Z" fill="#00A689"/>
<path d="M18.6906 20H1.3094C0.587822 20 0 19.4122 0 18.6906V1.30941C0 0.587832 0.587822 0 1.3094 0H18.6906C19.4122 0 20 0.587832 20 1.30941V18.6906C20 19.4122 19.4122 20 18.6906 20ZM1.3094 0.702216C0.975009 0.702216 0.703978 0.973258 0.703978 1.30765V18.6889C0.703978 19.0232 0.975009 19.2943 1.3094 19.2943H18.6906C19.025 19.2943 19.296 19.0232 19.296 18.6889V1.30765C19.296 0.973258 19.025 0.702216 18.6906 0.702216H1.3094Z" fill="white"/>
</svg>
