<svg width="24" height="13" viewBox="0 0 24 13" fill="none" xmlns="http://www.w3.org/2000/svg">
<path d="M23.8727 11.7404C23.8437 11.6809 23.8166 11.6316 23.7914 11.5921C23.375 10.8801 22.5793 10.0062 21.4047 8.97011L21.3799 8.94638L21.3675 8.93474L21.3549 8.92282H21.3423C20.8092 8.44036 20.4716 8.11597 20.3302 7.94989C20.0716 7.63352 20.0137 7.31327 20.155 6.9888C20.2549 6.74364 20.6301 6.22591 21.2797 5.4349C21.6213 5.01567 21.8919 4.6797 22.0918 4.42656C23.5331 2.60743 24.158 1.44498 23.9662 0.93876L23.8918 0.820463C23.8418 0.749243 23.7127 0.68409 23.5046 0.624671C23.2961 0.565377 23.0296 0.555572 22.7047 0.595087L19.106 0.618688C19.0477 0.599075 18.9644 0.600904 18.856 0.624671C18.7477 0.648438 18.6934 0.660364 18.6934 0.660364L18.6308 0.690074L18.5811 0.725767C18.5395 0.749367 18.4936 0.790879 18.4436 0.850213C18.3938 0.909342 18.3523 0.978732 18.3189 1.05781C17.9271 2.01478 17.4817 2.90453 16.9818 3.727C16.6735 4.21743 16.3904 4.64246 16.1319 5.00235C15.8737 5.3621 15.6571 5.62715 15.4822 5.79706C15.3072 5.96713 15.1492 6.10338 15.0073 6.2063C14.8657 6.30927 14.7576 6.35276 14.6826 6.33685C14.6076 6.32094 14.5369 6.30515 14.4699 6.28936C14.3534 6.21814 14.2597 6.12129 14.189 5.99871C14.118 5.87613 14.0702 5.72185 14.0452 5.53598C14.0203 5.35 14.0056 5.19003 14.0014 5.05553C13.9975 4.9212 13.9993 4.73118 14.0078 4.48602C14.0164 4.24074 14.0203 4.07478 14.0203 3.98778C14.0203 3.6872 14.0265 3.36097 14.0389 3.00903C14.0515 2.65708 14.0617 2.37824 14.0702 2.1728C14.0787 1.96716 14.0827 1.7496 14.0827 1.52024C14.0827 1.29087 14.0679 1.11099 14.0389 0.980436C14.0102 0.850047 13.9662 0.723481 13.9081 0.600779C13.8496 0.478202 13.7641 0.383381 13.6519 0.316068C13.5394 0.248837 13.3996 0.195484 13.2333 0.155845C12.7917 0.0609821 12.2294 0.0096659 11.5462 0.00168798C9.99681 -0.0141016 9.00124 0.0808851 8.55971 0.286525C8.38478 0.373409 8.22647 0.492122 8.08493 0.642289C7.93495 0.816349 7.91403 0.911336 8.02231 0.926959C8.52221 0.998055 8.8761 1.16813 9.0844 1.437L9.15946 1.57949C9.21784 1.68229 9.27614 1.86428 9.33448 2.12523C9.39274 2.38616 9.43034 2.67483 9.44687 2.99103C9.48845 3.56847 9.48845 4.06278 9.44687 4.47397C9.40516 4.88533 9.36578 5.20557 9.32818 5.43493C9.29058 5.6643 9.23439 5.85016 9.15946 5.99247C9.0844 6.13484 9.03446 6.22184 9.00942 6.25342C8.98443 6.285 8.9636 6.3049 8.94706 6.31271C8.83877 6.3521 8.72616 6.37218 8.60961 6.37218C8.49288 6.37218 8.35135 6.31674 8.18476 6.20597C8.01824 6.09519 7.8454 5.94303 7.66625 5.74923C7.48712 5.5554 7.2851 5.28452 7.06009 4.93656C6.83526 4.58861 6.60198 4.17737 6.36038 3.70286L6.1605 3.35873C6.03554 3.13733 5.86485 2.81498 5.64826 2.39194C5.43152 1.96874 5.23996 1.55937 5.07342 1.16392C5.00684 0.997846 4.90684 0.871405 4.77358 0.784396L4.71103 0.748703C4.66945 0.717124 4.60271 0.683591 4.51115 0.647857C4.41946 0.612164 4.32378 0.586569 4.22373 0.570819L0.799885 0.594422C0.450012 0.594422 0.21262 0.669672 0.0876214 0.819964L0.0375958 0.891058C0.0126049 0.930658 0 0.993899 0 1.08095C0 1.16796 0.0249909 1.27475 0.0750165 1.40118C0.574835 2.51644 1.11838 3.592 1.70564 4.62804C2.29291 5.66409 2.80323 6.49866 3.2363 7.13099C3.66946 7.76378 4.11099 8.361 4.56087 8.92236C5.01074 9.48393 5.30854 9.84381 5.45424 10.0019C5.60011 10.1603 5.71469 10.2787 5.79798 10.3578L6.11043 10.6425C6.31037 10.8323 6.60395 11.0597 6.99133 11.3246C7.3788 11.5897 7.80776 11.8506 8.27843 12.1078C8.74918 12.3647 9.29685 12.5742 9.9217 12.7363C10.5465 12.8986 11.1546 12.9637 11.7461 12.9323H13.1832C13.4745 12.9084 13.6953 12.8214 13.8454 12.6713L13.8951 12.6118C13.9286 12.5645 13.9599 12.4913 13.9887 12.3925C14.018 12.2937 14.0325 12.1848 14.0325 12.0663C14.024 11.7263 14.0512 11.4198 14.1136 11.147C14.1759 10.8743 14.2468 10.6686 14.3263 10.5302C14.4056 10.3918 14.4951 10.275 14.5948 10.1804C14.6947 10.0855 14.7658 10.0281 14.8076 10.0083C14.8491 9.98836 14.8822 9.97486 14.9072 9.96676C15.1071 9.90352 15.3424 9.96477 15.6134 10.1508C15.8842 10.3367 16.1383 10.5661 16.3758 10.8389C16.6132 11.1119 16.8985 11.4182 17.2316 11.7582C17.5651 12.0983 17.8566 12.3512 18.1063 12.5175L18.3561 12.6599C18.523 12.7548 18.7396 12.8418 19.0063 12.9209C19.2724 13 19.5056 13.0198 19.7058 12.9802L22.9046 12.9329C23.221 12.9329 23.4671 12.8831 23.6417 12.7844C23.8168 12.6855 23.9207 12.5766 23.9542 12.4582C23.9877 12.3396 23.9895 12.2051 23.9606 12.0546C23.9309 11.9046 23.9018 11.7996 23.8727 11.7404Z" fill="white"/>
</svg>
