<svg width="104" height="90" viewBox="0 0 104 90" fill="none" xmlns="http://www.w3.org/2000/svg">
<path d="M92.8038 67.7386V85.1244C92.8038 86.2579 91.8981 87.174 90.7774 87.174H4.81521C3.69457 87.174 2.78883 86.2579 2.78883 85.1244V23.0656C2.78883 21.9321 3.69457 21.016 4.81521 21.016H90.7774C91.8981 21.016 92.8038 21.9321 92.8038 23.0656V40.6636H95.5926V21.7044C95.5926 19.7686 94.0421 18.1952 92.1232 18.1952H3.46941C1.55561 18.1952 0 19.7635 0 21.7044V86.4907C0 88.4265 1.5505 90 3.46941 90H92.1232C94.037 90 95.5926 88.4317 95.5926 86.4907V67.7438H92.8038V67.7386Z" fill="white"/>
<path d="M101.825 43.4792H69.9252C68.7227 43.4792 67.7505 44.4626 67.7505 45.679V46.295H99.9472C100.648 46.295 101.211 46.8695 101.211 47.5786V60.8184C101.211 61.5275 100.643 62.0968 99.9472 62.0968H67.7505V62.7128C67.7505 63.9292 68.7227 64.9126 69.9252 64.9126H101.825C103.028 64.9126 104 63.9292 104 62.7128V45.6738C104 44.4574 103.028 43.474 101.825 43.474V43.4792Z" fill="white"/>
<path d="M37.3395 15.3744L67.9961 2.47082C68.6357 2.20167 69.3112 2.06708 69.9815 2.06708C70.6519 2.06708 71.3171 2.20167 71.9516 2.46564C73.2309 2.99875 74.2236 4.00285 74.7558 5.29164L78.9057 15.3795H81.1215L76.644 4.49984C75.902 2.69864 74.5153 1.29592 72.7294 0.555769C70.9486 -0.189556 68.9837 -0.18437 67.2029 0.566131L32.0075 15.3846H37.3344L37.3395 15.3744Z" fill="white"/>
</svg>
