<svg width="154" height="40" viewBox="0 0 154 40" fill="none" xmlns="http://www.w3.org/2000/svg">
<g clip-path="url(#clip0_601_2305)">
<path d="M11.1247 39.9679H6.59864L6.56979 4.80118H0L1.80927 0.0331421H19.8909V4.80118H11.0958L11.1247 39.9679Z" fill="white"/>
<path d="M57.8838 35.2695L25.7142 35.1998L25.7102 23.469C25.7679 19.1763 27.1263 17.0238 29.7927 17.0238C32.2907 17.0238 33.54 19.0549 33.54 23.1175V33.3063H38.212V21.5576C38.212 19.2499 37.6118 17.3162 36.4114 15.7562C35.2111 14.1963 33.6051 13.4161 31.5936 13.4161C28.9026 13.4161 26.9411 14.1625 25.7082 15.6555L25.7051 6.74102V0.0101318H20.9845V33.3066H20.9916V35.1998H12.1962V39.9679H59.6749L57.8838 35.2695Z" fill="white"/>
<path d="M117.057 16.4326C115.387 14.4177 113.286 13.41 110.755 13.41C108.062 13.41 106.035 14.2064 104.672 15.7988V14.0438H99.9515L99.9485 35.2123L76.5008 35.1454L74.8506 35.1887L72.9349 35.163L68.8232 35.1522L70.6016 39.9222L99.9478 39.981V39.9858H102.949L104.725 35.235L104.77 31.4962C105.873 33.121 107.836 33.9336 110.658 33.9336C113.286 33.9336 115.427 32.9426 117.082 30.9598C118.737 28.9773 119.564 26.5074 119.564 23.5498C119.564 20.8197 118.729 18.4471 117.057 16.4322V16.4326ZM113.335 28.0839C112.394 29.2538 111.096 29.8389 109.441 29.8389C108.046 29.8389 106.813 29.2051 105.743 27.9376C104.672 26.67 104.137 25.2321 104.137 23.6232C104.137 22.0142 104.64 20.5925 105.646 19.3574C106.651 18.1223 107.917 17.5051 109.441 17.5051C111.096 17.5051 112.394 18.1145 113.335 19.3334C114.275 20.5523 114.746 21.9902 114.746 23.6478C114.746 25.4352 114.276 26.9141 113.335 28.0839Z" fill="white"/>
<path d="M93.9829 23.654C93.9829 21.8665 93.48 20.3958 92.4742 19.2422C91.4684 18.0885 90.1788 17.5116 88.6054 17.5116C87.032 17.5116 85.7504 18.0723 84.7608 19.1935C83.7714 20.3147 83.2766 21.8016 83.2766 23.6543C83.2766 25.507 83.7795 27.0017 84.7853 28.1394C85.791 29.2768 87.0887 29.8457 88.6786 29.8457C90.2684 29.8457 91.55 29.2931 92.5232 28.1881C93.4968 27.0831 93.9832 25.5719 93.9832 23.6543M98.0711 33.3066H93.4478V31.5517C92.0851 33.1441 90.0574 33.9404 87.3648 33.9404C84.6722 33.9404 82.5228 32.9004 80.9168 30.8202C79.3108 28.7401 78.508 26.3026 78.508 23.5079C78.508 20.7132 79.3273 18.3323 80.9654 16.366C82.6039 14.3998 84.7044 13.4165 87.2675 13.4165C89.9926 13.4165 92.0529 14.2291 93.4478 15.8539V14.0503H98.0711V33.3066Z" fill="white"/>
<path d="M79.4131 0.0131826L70.4295 25.0672L61.505 0.0550964H56.2822L37.0039 0L35.3533 0.0432659L33.438 0.0175768L26.7485 0V4.76804L57.874 4.83057L68.4341 33.306H71.7919L84.961 0.0131826H79.4131Z" fill="white"/>
<path d="M135.022 21.5092C135.022 20.1768 134.609 19.0066 133.781 17.9993C132.954 16.9917 131.884 16.488 130.569 16.488C129.255 16.488 128.185 17.016 127.358 18.0723C126.53 19.1286 126.117 20.2741 126.117 21.5092H135.022ZM125.971 24.1417C125.971 25.994 126.376 27.5218 127.187 28.7242C127.999 29.9265 129.118 30.5278 130.545 30.5278C132.784 30.5278 134.211 29.4228 134.828 27.2129L139.459 27.2065C137.999 31.2042 134.925 33.9401 130.545 33.9401C127.625 33.9401 125.298 33.0058 123.562 31.1369C121.826 29.268 120.958 26.8387 120.958 23.8486C120.958 20.6963 121.794 18.1693 123.465 16.268C125.135 14.3666 127.407 13.4161 130.278 13.4161C133.149 13.4161 135.387 14.318 136.993 16.1216C138.599 17.9253 139.402 20.3874 139.402 23.5072V24.141H125.97L125.971 24.1417Z" fill="white"/>
<path d="M53.4883 21.5096C53.4883 20.1771 53.0746 19.0069 52.2473 17.9996C51.42 16.992 50.3495 16.4884 49.0354 16.4884C47.7213 16.4884 46.6508 17.0164 45.8235 18.0727C44.9962 19.129 44.5825 20.2745 44.5825 21.5096H53.4883ZM44.4366 24.1421C44.4366 25.9944 44.8422 27.5222 45.6534 28.7245C46.4646 29.9268 47.5837 30.5282 49.0112 30.5282C51.2499 30.5282 52.6774 29.4232 53.2937 27.2133L57.9247 27.2068C56.4647 31.2045 53.391 33.9404 49.0112 33.9404C46.0912 33.9404 43.7636 33.0062 42.0278 31.1373C40.292 29.2684 39.4241 26.8391 39.4241 23.849C39.4241 20.6967 40.2595 18.1697 41.9305 16.2683C43.6012 14.367 45.8724 13.4165 48.7435 13.4165C51.6146 13.4165 53.8533 14.3183 55.4592 16.122C57.0652 17.9256 57.868 20.3877 57.868 23.5076V24.1414H44.4362L44.4366 24.1421Z" fill="white"/>
<path d="M151.22 13.4165C148.657 13.4165 146.775 14.2939 145.575 16.0489V14.0502H145.551V10.6948V6.78021L116.036 6.79103L114.192 11.4901L140.855 11.5395V14.0502V35.2019H116.53L114.723 40H145.575V24.6291C145.575 19.884 147.23 17.5115 150.539 17.5115C151.378 17.5781 151.777 17.6389 152.578 18.0199L154 14.2385C153.136 13.7061 152.032 13.4165 151.221 13.4165H151.22Z" fill="white"/>
</g>
<defs>
<clipPath id="clip0_601_2305">
<rect width="154" height="40" fill="white"/>
</clipPath>
</defs>
</svg>
