<svg width="40" height="40" viewBox="0 0 40 40" fill="none" xmlns="http://www.w3.org/2000/svg">
<g clip-path="url(#clip0_601_2314)">
<path d="M0.1 39.9V0.1H39.9V39.9H0.1Z" fill="#0B0B0B" stroke="white" stroke-width="0.2"/>
<path fill-rule="evenodd" clip-rule="evenodd" d="M4.60477 4.22729L16.8551 35.4149H21.5354L35.3819 4.22729H29.8541L17.8726 31.4666L7.33496 4.22729H4.60477Z" fill="#00A689"/>
<path d="M21.6029 35.5188H16.7843L4.45227 4.12347H7.40614L17.8787 31.1947L29.7863 4.12347H35.5418L21.6029 35.5188ZM16.926 35.311H21.4678L35.2221 4.3313H29.922L17.8665 31.7387L7.26371 4.3313H4.75719L16.926 35.311Z" fill="white"/>
<path fill-rule="evenodd" clip-rule="evenodd" d="M35.5481 23.3376L30.1349 35.534H35.5481V23.3376Z" fill="white"/>
<path fill-rule="evenodd" clip-rule="evenodd" d="M27.8914 4.12146L17.9955 26.7979L13.8424 16.0423L18.7864 4.12146H27.8914Z" fill="white"/>
<path fill-rule="evenodd" clip-rule="evenodd" d="M4.47983 10.5192L14.0954 35.5353H4.47983V10.5192Z" fill="white"/>
</g>
<defs>
<clipPath id="clip0_601_2314">
<rect width="40" height="40" fill="white"/>
</clipPath>
</defs>
</svg>
